<?xml version="1.0" encoding="utf-8"?>
<svg viewBox="320.932 495.03 10.76 20" xmlns="http://www.w3.org/2000/svg">
  <path style="fill-opacity: 1; fill: #333;" id="path3-5" d="m 327.15344,505.66448 c 0.48559,-0.3221 1.11057,-0.73077 2.13942,-1.46633 0.89425,-0.63462 2.39905,-1.75 2.39905,-4.6827 0,-2.37018 -1.37981,-4.48557 -1.37981,-4.48557 l -7.99519,0 c 0,0 -1.38461,2.13463 -1.38461,4.50964 0,2.93267 1.49998,4.04324 2.38943,4.67787 1.02884,0.73078 1.68268,1.1827 2.10095,1.45672 0.2404,0.15872 0.50479,0.67788 0.50479,0.89422 l 0,7.69233 -3.50958,0 0,0.76922 7.69228,0 0,-0.76922 -3.41346,0 0,-7.69233 c 0,-0.24036 0.22116,-0.74517 0.45673,-0.90385 z m -4.29806,-9.86538 6.91826,0 c 0.35577,0 1.15385,2.13946 1.15385,3.71635 0,0.0433 0,0.0864 0,0.12973 l -9.22597,0 c 0,-0.0335 0,-0.072 0,-0.10584 0,-1.58174 0.79808,-3.11539 1.15386,-3.7404 z"/>
</svg>